Titulo:Traidor
Año: 2008
Género: Thriller
Duración: 114 min
País: Estados Unidos
Director: Andrew Davis
Reparto: Don Cheadle, Guy Pearce, Jeff Daniels,
Neal McDonough, Archie Panjabi, Alyy Kahn, Said Taghmaoui

Sinopsis:
El agente del FBI Roy Clayton dirige una investigación sobre una organización terrorista cuyo cabecilla parece ser un agente de la CIA.
Clayton buscará pistas y pruebas para descubrir si el agente es un traidor.


Calidad: HDRip
Tamaño: 1,35 GB
Video: XviD 1596 kbps
Audio: MP3 ~160kb/s (2.0)
Subtitulos: Traducidos al castellano

General
Format : AVI
Format/Info : Audio Video Interleave
File size : 1.35 GiB
Duration : 1h 49mn
Overall bit rate : 1 762 Kbps

Video
Format : MPEG-4 Visual
Format profile : Streaming Video@L1
Format settings, BVOP : Yes
Format settings, QPel : No
Format settings, GMC : No warppoints
Format settings, Matrix : Custom
Codec ID : XVID
Codec ID/Hint : XviD
Duration : 1h 49mn
Bit rate : 1 596 Kbps
Width : 720 pixels
Height : 300 pixels
Display aspect ratio : 2.400
Frame rate : 25.000 fps
Resolution : 24 bits
Colorimetry : 4:2:0
Scan type : Progressive
Bits/(Pixel*Frame) : 0.296
Stream size : 1.22 GiB (91%)

Audio
Format : MPEG Audio
Format version : Version 1
Format profile : Layer 3
Codec ID : 55
Codec ID/Hint : MP3
Duration : 1h 49mn
Bit rate mode : Variable
Bit rate : 152 Kbps
Channel(s) : 2 channels
Sampling rate : 48.0 KHz
Resolution : 16 bits
Stream size : 120 MiB (9%)
Alignment : Aligned on interleaves
Interleave, duration : 24 ms (0.60 video frame)
Interleave, preload duration : 591 ms